<svg width="22" height="22" viewBox="0 0 22 22" fill="none" xmlns="http://www.w3.org/2000/svg">
<path d="M11 0C8.82441 0 6.69767 0.645139 4.88873 1.85383C3.07979 3.06253 1.66989 4.78049 0.83733 6.79048C0.00476617 8.80047 -0.213071 11.0122 0.211367 13.146C0.635804 15.2798 1.68345 17.2398 3.22183 18.7782C4.76021 20.3166 6.72022 21.3642 8.85401 21.7886C10.9878 22.2131 13.1995 21.9952 15.2095 21.1627C17.2195 20.3301 18.9375 18.9202 20.1462 17.1113C21.3549 15.3023 22 13.1756 22 11C21.9966 8.08367 20.8365 5.28778 18.7744 3.22563C16.7122 1.16347 13.9163 0.00344047 11 0ZM15.949 14.536C16.0445 14.6282 16.1207 14.7386 16.1731 14.8606C16.2255 14.9826 16.2531 15.1138 16.2543 15.2466C16.2554 15.3794 16.2301 15.5111 16.1798 15.634C16.1295 15.7568 16.0553 15.8685 15.9614 15.9624C15.8675 16.0563 15.7559 16.1305 15.633 16.1808C15.5101 16.2311 15.3784 16.2564 15.2456 16.2553C15.1128 16.2541 14.9816 16.2265 14.8596 16.1741C14.7376 16.1217 14.6273 16.0455 14.535 15.95L11 12.414L7.464 15.95C7.2754 16.1322 7.0228 16.233 6.7606 16.2307C6.49841 16.2284 6.24759 16.1232 6.06219 15.9378C5.87678 15.7524 5.77161 15.5016 5.76933 15.2394C5.76705 14.9772 5.86785 14.7246 6.05 14.536L9.58601 11L6.05 7.464C5.95449 7.37175 5.87831 7.26141 5.8259 7.1394C5.77349 7.0174 5.74591 6.88618 5.74475 6.7534C5.7436 6.62062 5.7689 6.48894 5.81918 6.36605C5.86946 6.24315 5.94372 6.1315 6.03761 6.0376C6.1315 5.94371 6.24315 5.86946 6.36605 5.81918C6.48895 5.7689 6.62063 5.7436 6.75341 5.74475C6.88619 5.7459 7.01741 5.77349 7.13941 5.8259C7.26141 5.87831 7.37176 5.95449 7.464 6.05L11 9.586L14.535 6.05C14.6273 5.95449 14.7376 5.87831 14.8596 5.8259C14.9816 5.77349 15.1128 5.7459 15.2456 5.74475C15.3784 5.7436 15.5101 5.7689 15.633 5.81918C15.7559 5.86946 15.8675 5.94371 15.9614 6.0376C16.0553 6.1315 16.1295 6.24315 16.1798 6.36605C16.2301 6.48894 16.2554 6.62062 16.2543 6.7534C16.2531 6.88618 16.2255 7.0174 16.1731 7.1394C16.1207 7.26141 16.0445 7.37175 15.949 7.464L12.414 11L15.949 14.536Z" fill="black"/>
</svg>
