<svg width="25" height="22" viewBox="0 0 25 22" fill="none" xmlns="http://www.w3.org/2000/svg">
<path d="M18.125 0C15.95 0 13.8625 0.971117 12.5 2.49973C11.1375 0.971117 9.05 0 6.875 0C3.01875 0 0 2.89537 0 6.59401C0 11.1199 4.25 14.8185 10.6875 20.4234L12.5 22L14.3125 20.4234C20.75 14.8185 25 11.1199 25 6.59401C25 2.89537 21.9813 0 18.125 0ZM12.6312 18.649L12.5 18.7629L12.3688 18.649C6.425 13.4757 2.5 10.0589 2.5 6.59401C2.5 4.20218 4.38125 2.39782 6.875 2.39782C8.8 2.39782 10.675 3.59074 11.3312 5.22725H13.6625C14.325 3.59074 16.2 2.39782 18.125 2.39782C20.6187 2.39782 22.5 4.20218 22.5 6.59401C22.5 10.0589 18.575 13.4757 12.6312 18.649Z" fill="black"/>
</svg>
