<svg width="29" height="29" viewBox="0 0 29 29" fill="none" xmlns="http://www.w3.org/2000/svg">
<path d="M9.49472 5.75278C8.65361 6.07162 7.89109 6.56699 7.22627 7.22662C5.68069 8.77716 5.01705 10.9894 5.45106 13.1441C5.49731 13.3738 5.69909 13.5321 5.92448 13.5321C5.9561 13.5321 5.9882 13.5291 6.02029 13.5227C6.28202 13.4698 6.45147 13.2149 6.39884 12.9535C6.02855 11.1159 6.59378 9.23028 7.90902 7.91103C8.47519 7.3491 9.12396 6.92713 9.8374 6.65667C10.0871 6.56204 10.2126 6.28308 10.118 6.03339C10.0236 5.7837 9.74418 5.65815 9.49472 5.75278ZM11.783 5.32019C11.7283 5.32019 11.6648 5.32279 11.6098 5.33199C11.3466 5.37707 11.1611 5.6277 11.206 5.89084C11.2463 6.12661 11.4441 6.29417 11.674 6.29417C11.7006 6.29417 11.7278 6.29181 11.7552 6.28709L11.783 6.28686C12.0499 6.28686 12.2663 6.07044 12.2663 5.80352C12.2663 5.5366 12.0499 5.32019 11.783 5.32019Z" fill="black"/>
<path d="M19.7629 16.0213C20.4347 14.7501 20.7972 13.3291 20.7972 11.8453C20.7972 9.45763 19.8644 7.21012 18.1776 5.51845C14.6879 2.0288 9.00873 2.0288 5.51905 5.51845C2.0294 9.00814 2.0294 14.6873 5.51905 18.177C7.26391 19.9218 9.5549 20.7918 11.8459 20.7918C13.2862 20.7918 14.7217 20.4486 16.0267 19.7623L20.0384 23.774L23.7746 20.033L19.7629 16.0213ZM6.2054 17.4906C3.09274 14.378 3.09274 9.31745 6.2054 6.20478C7.76172 4.64846 9.8014 3.8703 11.8459 3.8703C13.8904 3.8703 15.9349 4.64846 17.4912 6.20478C18.9992 7.70797 19.8306 9.71378 19.8306 11.8453C19.8306 13.9816 18.9992 15.9874 17.4912 17.4906C14.3786 20.6033 9.31807 20.6033 6.2054 17.4906ZM25.3261 21.5844L24.456 20.7145L20.7199 24.4555L21.5899 25.3254C22.1022 25.8378 22.7789 26.0988 23.4556 26.0988C24.1322 26.0988 24.8089 25.8378 25.3261 25.3254C26.3556 24.2959 26.3556 22.614 25.3261 21.5844Z" fill="black"/>
</svg>
